<svg xmlns="http://www.w3.org/2000/svg" width="128" height="128" viewBox="0 0 32 32"><path d="M13.507 27.747l-1.284-1.251c-.28-.273-.44-.65-.377-.89.103-.4.136-.4.828.024.952.579 1.518.567 1.518-.034.269-.87.407-.874.208-1.478-.065-.198-.215-.918-.124-2.638l.04-2.48c-.05 0-.631.896-1.292 1.995-1.359 2.265-3.543 5.046-4.401 5.609-.739.484-1.04.467-1.71-.092-.495-.41-.533-.58-.422-1.807.098-1.075.244-1.463.709-1.878.736-.658 2.5-3.991 2.335-4.42a.548.548 0 0 0-.477-.32c-.498 0-2.213-1.116-2.07-1.348.065-.105.701-.475 1.412-.823 1.36-.664 1.789-.643 3.453.172.68.334.666 1.275-.031 1.937-1.137 1.076-3.069 3.646-3.523 4.68-.46 1.054-.46 1.084-.036 1.084.868 0 6.154-5.356 6.157-6.24 0-.233.25-.719.556-1.08.527-.627.536-.692.2-1.364a2.563 2.563 0 0 1-.223-1.496c.115-.702.059-.814-.487-1.013a17.262 17.262 0 0 1-1.3-.553 13.4 13.402 0 0 0-1.826-.641l-1.142-.314 1.368-.409a12.498 12.499 0 0 0 2.596-1.189l1.227-.784-.15-.955c-.144-.938-.61-1.524-1.207-1.524-.215 0-.261-.183-.154-.627.252-1.054.522-1.405 1.438-1.872l.88-.449 1.178 1.263c.86.924 1.14 1.38 1.037 1.703-.12.38-.023.44.731.445.915.009 1.9.622 1.9 1.183-.001.175-.385.61-.856.967-1.876 1.422-2.175 2.23-2.726 7.39-.123 1.146-.105 1.206.3.986.483-.266 2.265-2.093 3.016-3.096.571-.76.647-1.69.152-1.881-.54-.208-.398-.539.229-.539.387 0 .57-.126.57-.391 0-.343.065-.33.494.1.344.344.524.862.596 1.732.097 1.172.057 1.288-.748 2.178-.469.52-.96.942-1.092.942-.424 0-3.817 2.38-3.817 2.678 0 .394 1.548.373 2.326-.035.442-.23.86-.265 1.476-.126.531.12.967.109 1.133-.029.186-.154.484-.029.963.411 1.216 1.114 1.496 2.802.466 2.802a2.27 2.27 0 0 0-.898.237c-.529.283-1.447-.132-2.186-.986-.52-.598-2.632-1.423-3.144-1.228-.315.121-.622 3.689-.583 6.794.018 1.393-.023 1.52-.507 1.651-1.117.3-1.89.102-2.7-.685zm11.58-19.499c-.218-.123-.647-.716-.954-1.32-.344-.679-.76-1.155-1.082-1.246-.515-.144-.515-.15-.07-.407.253-.145.525-.366.61-.492.318-.48 1.498-.225 2.439.533 1.103.883 1.248 1.701.434 2.434-.754.679-.937.744-1.375.497z"/><path fill="#c33" d="M0 1.778v28.444h5.332v-1.48H1.48V3.258h3.852v-1.48Zm32 0v28.444h-5.332v-1.48h3.852V3.258h-3.852v-1.48Z"/></svg>