<svg xmlns="http://www.w3.org/2000/svg" width="400" height="305" viewBox="0 0 105.834 80.698"><path d="M39.47 10.893c1.249.96 2.659 2.723 3.108 4.258 3.424 1.793 5.57-4.674-2.85-4.482zm5.348 7.557c-.8 1.824-2.433 4.709-3.969 6.947a19.64 19.64 0 0 1-2.722-5.89V17.26H50.1c.48 0 .801-.157.895-.51-1.408-1.281-3.777-3.074-3.777-3.074l-2.08 2.658h-7.012v-5.443c.8-.13 1.056-.418 1.12-.866l-4.995-.511v6.82H21.828l.258.928h12.166v9.285c-5.092 2.466-9.992 4.642-12.103 5.476l2.947 4.033c.351-.191.574-.574.638-.992 3.778-3.01 6.565-5.474 8.518-7.398v6.92c0 .447-.16.638-.736.638-.77 0-4.58-.256-4.58-.256v.416c1.793.32 2.593.768 3.168 1.346.578.575.771 1.471.898 2.688 4.514-.383 5.123-1.889 5.123-4.544V21.458c1.73 8.005 4.869 12.006 9.639 15.177.447-1.826 1.632-3.234 3.203-3.586l.094-.353c-3.426-1.248-7.044-3.105-9.702-6.594 2.498-1.345 4.996-3.076 6.725-4.387.738.063 1.058-.066 1.217-.386zm-19.789.64c1.473 1.698 2.977 4.29 3.3 6.596 3.618 2.754 6.755-4.547-3.01-6.789zm32.852-9.605c1.183 1.184 2.496 3.137 2.947 4.804 3.264 2.016 5.729-4.23-2.66-5.029zm-3.172 3.938v26h.61c1.376 0 2.849-.737 2.849-1.122V14.895c.992-.129 1.25-.513 1.344-.992zm10.92 17.833v-3.968h4.996v3.617zm4.996-13.318v3.682h-4.996v-3.682zm-4.996 4.613h4.996v3.84h-4.996ZM79.3 10.157l-1.602 1.89H65.406l.287.897h12.328v21.804c0 .512-.191.737-.77.737-.48 0-2.113-.096-3.265-.192v-3.617l2.914-.226c.416-.032.736-.254.8-.608l-2.368-2.691-1.344 1.922V17.938h2.465c.447 0 .8-.162.865-.513l-3.106-2.594-1.728 2.21H59.547l.222.895h2.497v13.576l-3.137.227.353.992 11.143-.8v5.892h.576c1.728 0 2.785-.674 2.785-.866V35.93c.963.26 1.508.578 1.955.994.48.516.67 1.379.768 2.498 4.228-.418 4.77-1.824 4.77-4.258V13.517c.642-.096 1.087-.383 1.313-.641zM42.668 51.94v6.98H29.994v-6.98ZM29.992 67.47v-7.653h12.68v7.652zm14.379-23.055H21.987l.256.93H33.48l-.543 5.698h-2.692L26.15 49.38v21.836h.609c1.666 0 3.234-.896 3.234-1.345v-1.473H42.67v2.661h.64c1.345 0 3.204-.832 3.235-1.087V52.58c.67-.126 1.086-.415 1.31-.672l-3.68-2.88-1.825 2.016h-8.196c1.41-1.506 2.817-3.648 4.004-5.697h11.559c.48 0 .83-.16.927-.514l-4.035-3.168Zm23.404.545c1.344 1.28 2.723 3.425 3.012 5.251 3.297 2.403 6.21-4.162-2.756-5.476zm-.607 7.908c1.343 1.217 2.752 3.298 3.105 5.091 3.361 2.305 6.18-4.355-2.883-5.314zm-4.9-.575h4.45c.418 0 .77-.162.867-.515l-3.107-2.88-1.695 2.499h-.514v-5.638l2.883-.67c1.023.351 1.728.255 2.111-.065l-4.097-3.62c-2.114 1.634-6.34 3.845-9.83 5.061l.128.415 5.155-.512v5.025H53.56l.256.897h4.355c-.992 4.45-2.785 9.224-5.316 12.55l.387.354a25.629 25.629 0 0 0 5.379-5.635v11.879h.671c1.793 0 2.977-.832 2.977-1.058V55.047c.8 1.344 1.602 3.04 1.826 4.512 2.688 2.275 5.666-3.008-1.826-5.474zm17.13 7.747-.256.064V43.55c.865-.128 1.088-.48 1.154-.928l-4.804-.48v18.636L64.83 62.797l.447.863 10.213-1.953v9.574h.705c1.375 0 2.945-.834 2.945-1.216v-9.063l4.16-.799c.385-.062.706-.32.706-.64-1.153-1.026-3.106-2.497-3.106-2.497z"/><path fill="#c33" d="M96.574 19.182v42.334h-7.938v-2.204h5.735V21.385h-5.735v-2.203zm-87.314 0v42.334h7.938v-2.204h-5.735V21.385h5.735v-2.203z"/></svg>