<svg xmlns="http://www.w3.org/2000/svg" width="200" height="200" fill="#ccc" opacity=".3" viewBox="0 0 200 200"><path d="M13.116 155.823 24.85 144.01c.23-.225.327-.493.195-.718l-3.472.36.28 2.463-8.91 8.969L10 156.253l4.818 4.941c3.116 3.197 6.755 7.033 8.526 11.292l.307-.078c-.07-5.61-4.141-10.024-7.062-13.023zm12.905-6.786-.663.668-1.478-1.513.927-1.359c.537-.211.823-.507.858-.83l-2.552.055c-.474 1.458-1.653 4.048-2.76 5.879l.333.183 1.771-2.077 1.27 1.302-1.82 1.83-2.134.155.216 1.774-.195.197-1.478-1.513.718-1.112c.565-.247.858-.536.858-.831l-2.538.106c-.363 1.38-1.325 3.78-2.308 5.554l.32.162a27 27 0 0 0 1.625-2.028l1.22 1.253-1.869 1.88.593.345 1.346-1.36a11.364 11.475 0 0 1 1.331 4.893l.404.085a12.41 12.53 0 0 0 .488-3.492l1.96 2.006.279-.275c.794-.802.962-1.654.878-1.731l-2.747-2.816a4.601 4.646 0 0 1 2.029.831c2.084-.24 1.275-3.766-2.35-1.162l-.307-.31 1.896-1.907a1.1 1.1 0 0 0 .182-.247l.034.036 1.395-1.408c.753 1.689 1.206 3.583 1.067 5.448l.39.07c.46-1.372.76-2.752.795-4.061l1.924 1.978.293-.296c.808-.817.976-1.704.878-1.802l-3.228-3.308c1.834 1.189 3.479 1.815 5.04 1.773-.703-1.084-.815-2.02-.355-2.773l-.146-.211a6.972 7.04 0 0 1-4.232.74l2.189-2.205c.23-.225.306-.471.167-.69l-2.845.155zm8.805 10.095-2.467 2.484-2.566-2.633 4.009-4.034c.243-.246.34-.507.195-.718l-3.2.317.244 2.231-1.722 1.732-1.603-1.647c.34-.472.292-.718.118-.964l-2.531 2.154 5.25 5.386-1.834 1.844-3.514-3.604c.307-.444.314-.704.105-.95l-2.496 2.118 4.128 4.231-2.496 2.513.592.345 12.759-12.84c.23-.225.327-.493.195-.718l-3.423.38zm.677-14.615-3.71-3.809 3.034-3.055 3.674 3.773.035.035zm4.372-11.94 3.708 3.808-3.102 3.12-.035-.036-3.674-3.773zm4.14 4.252 1.27 1.302.327-.324c.663-.668 1.193-2.013 1.074-2.161l-4.594-4.71c.258-.394.356-.718.341-.964l-3.263.415.07 1.887-2.935 2.957-2.217-2.274c.356-.493.314-.802.119-1.063l-2.775 2.302 2.921 3-2.907 2.921-2.83 1.253 6.741 6.92.293-.295c.781-.782 1.206-2.063 1.032-2.246l-.754-.775 3.019-3.041a10.388 10.49 0 0 1 2.461 4.11c-1.437.24-2.872.184-4.274-.266l-.07.359a12.759 12.883 0 0 0 4.63 1.182c.341 2.394-.272 5.168-2.098 8.603l.272.148c2.488-3.45 3.667-6.336 3.841-8.827 3.25-.43 6.408-2.204 9.775-4.844-.767-1.155-.906-2.316-.307-3.414l-.209-.212c-3.067 2.922-6.212 5.407-9.335 6.618-.293-1.986-1.269-3.746-2.747-5.428zm15.088-19.233c1.233 1.795 2.259 3.731 2.99 5.737-1.903-.436-3.869-1.33-5.891-2.815zm-.586-2.316.035 1.95-3.486 3.513-2.956-3.034a52.847 53.362 0 0 0 5.131-5.885c.439-.176.634-.409.634-.704l-3.402-.36-2.99 6.568-2.155 1.02 4.016 4.12-2.6-.163.46 1.957-4.301-4.414c.327-.457.293-.718.104-.986l-2.447 2.07 4.93 5.055-1.074 1.077-3.856-3.956c.341-.472.293-.789.105-1.05l-2.468 2.056 7.515 7.71c2.727 2.8 4.818 5.236 5.947 8.046l.341-.05c.119-3.576-1.61-6.532-4.322-9.419l1.38-1.387 6.358 6.526.293-.295c.614-.62 1.011-1.866.886-2.028l-5.508-5.653c.258-.394.362-.789.34-1.035l-3.053.394.07 1.788-1.22 1.225-2.343-2.408 4.386-4.407c.18-.183.258-.36.216-.542l1.206 1.232c2.956 3.034 5.828 6.343 6.462 10.595l.307-.049c1.018-5.59-2.224-9.377-5.068-12.291l-.865-.887.39-.394c2.49 2.09 4.664 3.527 6.728 4.357.586 2.45.697 4.97.105 7.561l.356.063a16.942 17.107 0 0 0 1.38-6.998c1.708.465 3.402.52 5.18.233-.495-1.169-.377-2.295.293-3.168l-.126-.197c-1.826.661-3.667 1.048-5.577.943-.439-2.724-1.555-5.259-2.977-7.61.342-.408.454-.62.39-.915zm17.088-17.36c.244-.247.307-.472.182-.704-1.402.014-3.717.246-3.717.246l.39 2.71-3.115 3.133-2.922-2.999c.44-.605.39-.915.182-1.232l-2.936 2.4 3.709 3.809-6.024 6.06.579.332 4.74-4.773c2.155 4.062 3.473 9.398 2.93 14.185h.32a22.31 22.527 0 0 0 .6-12.58l4.043 4.154-3.13 3.154.578.33 3.005-3.02 3.709 3.81.376-.374c.795-.802 1.206-2 1.032-2.175l-3.145-3.231 2.775-2.795c.23-.225.307-.471.181-.704-1.29-.007-3.374.098-3.374.098l.44 2.464-.475.472-6.665-6.836c4.636 2.773 8.987 3.942 13.072 3.288-.62-1.267-.586-2.549.035-3.464l-.126-.233a19.033 19.219 0 0 1-12.786.042zm9.524-11.806-3.946 3.97.592.317 3.8-3.822 2.935 3.012-3.681 3.71.593.318 3.534-3.562 3.424 3.506-4.414 4.441.614.331 4.267-4.294 4.287 4.4.39-.394c.76-.767 1.144-2.162.934-2.373L84.905 81.77c.377-.506.328-.788.132-1.048l-2.872 2.365zm14.759-.296-1.736 1.746-3.375-3.456 3.765-3.788c.23-.225.328-.493.195-.718l-3.34.233.377 2.365-1.443 1.458-2.893-2.964 3.974-3.999c.23-.225.327-.493.195-.718l-3.438.233.377 2.464-1.555 1.57-2.154-2.21c.39-.521.327-.818.132-1.085l-2.886 2.38 14.898 15.283.39-.394c.76-.767 1.144-2.161.935-2.372l-3.695-3.788 4.316-4.344c.243-.246.34-.506.195-.717l-3.633.232zm6.052-23.773 1.317 1.352-6.296 6.336-1.317-1.352zm-3.138 9.581-1.38-1.415 6.295-6.336 1.38 1.415zm.467.478 6.296-6.336.614.627.327-.324c.613-.62 1.255-1.915 1.171-2.028l-3.513-3.604c.279-.408.363-.789.341-1.035l-3.249.465.056 1.872-6.023 6.061-2.796 1.218 5.717 5.864.258-.26c.795-.803 1.242-2.063 1.081-2.225zm4.483 6.512 2.287-2.302 1.346 1.387-2.015 2.584zm-1.471-6.16 1.394 1.437-2.287 2.302-1.394-1.436zm-.425 4.218 2.286-2.302 1.444 1.485-2.287 2.302zm8.31-2.556-1.22 1.584-4.894-5.026 7.21-7.251c.23-.225.34-.507.195-.718l-3.424.218.356 2.478-12.416 12.495.592.317 1.687-1.696 5.536 5.68-1.66 2.028 2.755 1.211c.146-.21.18-.542.083-.837l3.277-6.006 2.329 2.387.307-.31c.906-.915 1.108-1.802 1.024-1.915l-2.426-2.485.948-1.929zm.21-6.117a14.85 14.995 0 0 1 1.61 3.795c-1.472.14-2.984-.092-4.546-.838zm-.523-2.316-.014 1.936-4.204 4.23.593.318.906-.915c1.917 1.302 3.604 2.048 5.215 2.35a12.48 12.601 0 0 1-.3 5.266l.342.085a14.432 14.572 0 0 0 1.498-5.195c1.5.021 2.97-.317 4.56-.93-.656-1.203-.697-2.33-.125-3.294l-.146-.183c-1.395.88-2.817 1.626-4.26 2.063a14.3 14.3 0 0 0-1.408-5.076c.34-.409.439-.606.376-.867zm10.422-6.174c1.158.303 2.677 1.028 3.57 2.049 2.6-.035 1.562-4.632-3.493-2.33zm3.807-11.235-2.37 2.386-3.243-3.33a32.35 32.665 0 0 0 3.145-4.857c.648-.36.941-.718.955-1.063l-3.57.394c-.09 1.232-.453 3.161-.976 4.864l-2.523 1.338 4.72 4.843-2.824.17.314 2.097-.893.901a26.214 26.47 0 0 0-.286-3.984c.39-.324.44-.64.314-.901l-2.67 1.415 2.259-2.274c.23-.225.306-.471.181-.704l-2.907.183.293 2.02-1.088 1.091c.537-1.295-.983-3.154-4.322-.613l-.035.233a6.065 6.125 0 0 1 2.977 1.31c.223-.036.439-.078.613-.163l-3.57 3.59.593.345 1.074-1.077-.063.134c1.018.45 2.364 1.175 3.214 2.112 2.454.077 1.736-4.16-3.005-2.393l3.619-3.64a43.365 43.787 0 0 1 2.35 3.766l-4.595 4.626.593.344 3.018-3.041 1.897 1.943-2.873 2.894.58.33 2.74-2.76 1.01 1.036-2.523 1.007c1.171 1.527 2.74 4.097 3.325 6.244l.342-.014c.286-2.28-.28-4.808-.872-6.631l.16-.162 2.86 2.935c.174.183.222.331 0 .556l-1.395 1.275.209.21c.711-.52 1.165-.584 1.569-.534s.802.429 1.303.908c1.758-2.063 1.325-3.027.168-4.217l-4.337-4.45 2.643-2.66c.23-.226.307-.472.181-.705-1.094-.007-2.824.17-2.824.17l.293 1.985-.746.753-1.896-1.943 3.018-3.042c.146-.148.23-.295.23-.457l.446.464c2.922 3 5.648 6.259 5.982 10.588l.341.022c1.472-5.815-1.61-9.504-4.455-12.418l-.578-.591 1.54-1.55 8.897 9.124.327-.324c.976-.978 1.144-1.964 1.025-2.077l-8.38-8.595 1.428-1.436c.23-.225.328-.493.182-.704-1.34.013-3.472.232-3.472.232zm13.163-19.747.104 1.922-3.632 3.66-.161-.098c-1.13-.697-3.577-1-5.71-.943a17.22 17.388 0 0 0 .195 2.442c1.701-.535 4.092-1.013 4.93-.655l-3.912 3.935-2.879 1.204 12.41 12.735.306-.309c.809-.817 1.158-2.077.934-2.309l-10.436-10.707 4.092-4.119c2.643 3.837 4.008 8.237 3.57 11.743l.34.049c1.082-2.978 1.145-6.11.419-9.004 2.126 1.189 4.28 2.02 6.317 2.189-.58-.887-.718-2.084-.146-3.246l-.161-.26c-3.116.563-6.519-.52-9.53-2.288l3.68-3.71 8.604 8.827c.223.233.272.444-.02.74-.503.506-2.615 2.365-2.615 2.365l.209.211c1.102-.781 1.729-.957 2.364-.97.634-.015 1.129.33 1.834.893 2.112-2.549 1.666-3.668.383-4.984l-8.513-8.73c.259-.393.342-.766.328-.985zm16.384-16.163 1.457 2.189.244-.05a15.408 15.558 0 0 0 .55-3.688c.307-.345.454-.556.426-.817l-3.263.05V12l-4.316 4.343c.607-1.457-1.206-3.513-4.294-.05l-.02.212a4.462 4.506 0 0 1 3.032.83 1.7 1.7 0 0 0 .439-.147l-4.839 4.864a8.436 8.518 0 0 0-1.178-.648l-.23.225a3.347 3.38 0 0 1 .872 3.266c-.244.74-.154 1.528.586 1.922.822.38 1.728-.275 1.91-1.14.181-.866-.168-2.147-1.437-3.224zm-2.866 5.103c1.89-.464 4.685-.633 6.491-.133 2.754-1.232-.515-5.745-6.505-.14zm-3.708 11.306c1.29-2.668 1.889-5.948 1.784-8.158.39-.324.425-.556.342-.803l-3.103 1.204a17.848 18.022 0 0 1 .635 7.716zm11.043-6.216-4.573 4.604-1.75.746c.774-2.801 1.08-5.526.753-7.61 1.694.585 3.597.754 5.515.514zm-1.171 8.328-3.068-3.147 4.839-4.864 3.067 3.147zm-7.342-10.08c1.297 2.681 1.067 8.482-.377 12.777l.293.133a28.6 28.6 0 0 0 1.946-4.703l5.312 5.456.28-.274c.746-.754 1.157-2.014.996-2.176l-.655-.675 4.838-4.865 1.109 1.134.327-.324c.613-.62 1.185-1.915 1.095-2.049l-3.919-4.02c.244-.344.293-.654.28-.837l-2.12.267a17.709 17.881 0 0 0 4.106-1.295c-.593-.81-.892-2.133-.341-3.154l-.259-.26c-2.816 1.992-6.867 3.97-9.886 3.878.454-.556.551-.851.412-1.133zM49.147 164.96c.243-.247.34-.507.216-.74l-3.793.43.307 2.689-11.699 11.777.579.331 6.686-6.73c2.364 4.47 3.556 11.334 2.893 17.283h.259a30.258 30.553 0 0 0 1.226-12.066l8.318 8.532.356-.36c.71-.717 1.269-1.9 1.171-2.027l-9.203-9.44c.258-.36.293-.62.195-.818l-1.373.634a25.099 25.343 0 0 0-1.304-4.301zm-1.395 9.954c2.761-.43 6.721-.493 9.217.289 3.235-1.098-.286-6.364-9.217-.578zm12.445-23.85a7.948 8.025 0 0 1 3.835.774c2.684-.711.725-5.195-3.82-1.014zm-3.333 11.023a29.491 29.778 0 0 0-1.59-5.026c.391-.36.44-.704.294-.986l-3.563 1.852c2.468 3.977 4.246 8.715 4.825 12.179l.32-.063a19.312 19.5 0 0 0 .203-4.513l8.7 8.927.356-.36c.732-.732 1.109-1.928.983-2.097l-9.44-9.687c.259-.36.294-.62.217-.838zm17.319-5.385-.21.148a22.938 23.161 0 0 1 .956 3.09c.111.444 0 .557-.488.592-3.521.577-6.902-1.014-10.102-3.506l4.211-5.343c.195-.26.244-.542.098-.754-1.409.275-3.458.873-3.458.873l.501 2.464-1.854 2.351A46.293 46.744 0 0 1 59.5 152.5c.341-.472.293-.817.118-1.063l-2.837 2.24c1.798 1.843 3.597 3.561 5.43 5.011l-3.025 3.858.613.267 2.929-3.73c3.925 3.034 7.983 4.892 12.472 4.449 1.437-.176 3.445-.887 3.402-2.38-.014-.542-.558-.936-2.091-1.288zm10.737-17.085c.286 1.246.453 3.365.439 5.168-1.57-.021-3.18-.423-4.887-1.282l6.072-6.11c.23-.225.327-.493.195-.718l-3.374.232.327 2.415-3.667 3.689-1.875-1.929 4.817-4.85c.23-.225.328-.493.196-.718l-3.25.232.342 2.295-2.566 2.584-1.785-1.83 5.452-5.491c.23-.225.307-.472.182-.704l-3.312.232.328 2.345-3.116 3.132-1.346-1.386c.356-.493.341-.803.154-1.063l-2.775 2.366 2.008 2.055-5.585 5.618.614.331 5.438-5.47 1.785 1.83-4.79 4.816.579.33 4.657-4.688 1.876 1.929-6.394 6.434.593.345 5.193-5.223c.489 2.97.189 6.856-1.087 10.426l.307.113q1.611-2.799 2.544-5.597l2.217 2.274c.286.295.35.59.007 1.753l3.145.682a2.6 2.6 0 0 0 .02-.704l1.771-7.716-.243-.113-2.51 4.421-3.583-3.674c.3-1.577.37-3.12.188-4.527 4.81 3.218 8.973 3.929 13.065 2.253-.802-1.02-.941-2.281-.516-3.625l-.195-.26c-2.028 1.414-4.176 2.379-6.505 2.534a31.373 31.68 0 0 0 1.98-5.125c.44-.275.488-.521.44-.768zm6.226-19.508c1.115-.14 2.711.042 3.708.606 2.636-.824.481-5.245-3.695-.852zm6.498 1.162a35.417 35.762 0 0 1 1.47 5.597 13.944 14.08 0 0 1-4.336-1.64l-1.122-1.155 6.072-6.11c.244-.247.328-.494.195-.719-1.36.057-3.458.345-3.458.345l.28 2.429-3.556 3.576-2.727-2.801c.342-.472.328-.754.132-1.014l-2.788 2.288 3.423 3.506-6.296 6.336.593.345 6.17-6.21 4.657 4.78-3.388 8.99 3.513.57c.084-.282 0-.591-.174-.838l.606-8.151 3.465 3.555c.223.232.237.408-.056.704-.39.394-2.447 2.203-2.447 2.203l.21.211c1.066-.753 1.7-.929 2.279-.922.579.006 1.129.366 1.805.93 2.099-2.5 1.653-3.584.314-4.957l-6.728-6.899c4.887 3.239 8.485 3.696 12.494 2.893-.69-1.168-.795-2.499-.175-3.477l-.125-.233c-2.364 1.105-5.132 1.993-8.227 1.556.593-1.964.99-4.132 1.206-5.688.404-.345.502-.57.425-.817zm-9.712 10.426c1.596.12 3.66.69 4.978 1.71 3.213-.428 1.143-5.786-4.93-1.956zm16.203-23.224 1.283 1.317-2.81 2.823-1.283-1.317zm.146 5.857-1.22-1.253 2.81-2.824 1.22 1.254zm3.276-2.351.677.69.258-.26c.516-.521 1.039-1.669.949-1.802l-3.452-3.542c.244-.344.342-.704.314-.901l-2.824.402.056 1.604-2.566 2.584-2.607 1.02 14.787 15.171.307-.31c.795-.802 1.01-1.865.767-2.112l-9.475-9.722zm7.28 5.885-1.367-1.401 2.712-2.724 1.157 1.182zm-1.883-7.44 1.144 1.168-2.712 2.724-1.144-1.169zm-1.101 4.371 2.711-2.724 1.158 1.182-2.712 2.724zm8.993-2.85c.23-.226.259-.522.119-.74l-2.552-.14.314 1.837-4.079-4.182 1.318-1.324c.209-.21.292-.457.167-.69-1.129.028-2.893.233-2.893.233l.216 2.034-6.7 6.744.579.366 1.282-1.288 4.707 4.83-1.61 1.88.662.344 5.493-6.406 2.169 2.224.306-.31c.858-.865 1.074-1.703.977-1.801l-1.91-1.957zm-9.189-5.042-1.22-1.253 2.79-2.808 1.219 1.253zm-.16-5.843 1.283 1.317-2.79 2.809-1.282-1.317zm-.732-2.104.118 1.802-2.545 2.562-2.475 1.056 5.285 5.42.243-.246c.698-.704 1.074-1.83.927-1.978l-.209-.211 2.789-2.809 7.864 8.075c.209.21.258.394-.02.675l-1.897 1.718.223.233c.878-.62 1.394-.747 1.89-.698.494.05.996.402 1.575.923 1.82-2.19 1.373-3.175.167-4.415l-11.175-11.468c.258-.394.362-.788.34-1.035zm19.018-8.47 3.5 3.59-6.428 6.47-3.5-3.59zm1.36 14.46-3.835-3.936 6.428-6.47 3.835 3.936zm-4.274-19.198-11.343 11.418.593.345 5.696-5.73 2.58 3.21-1.367 1.373-2.914 1.232 10.953 11.235.307-.309c.844-.852 1.192-2.112.962-2.344l-.739-.76 6.428-6.47 1.332 1.366.327-.324c.683-.683 1.206-2.062 1.095-2.21l-8.715-8.948c.279-.408.341-.767.327-1.014l-3.311.394.084 1.971-4.155 4.182c-.042-1.493-.405-3.316-.83-4.977l5.856-5.9c.244-.246.342-.506.216-.739l-3.632.43zm12.138-11.657c1.324-.029 3.095.373 4.155 1.168 2.873-.444 1.06-5.308-4.141-1.415zm3.66 4.378c1.29-.056 3.047.29 4.128 1.035 2.858-.528.948-5.392-4.128-1.266zm-2.775 2.204 2.26-2.273c.209-.212.306-.472.18-.705-1.164-.006-3.018.099-3.018.099l.39 2.147-.257.26-2.824-2.9 1.122-1.816c.697-.345 1.004-.753 1.038-1.113l-3.89.233c-.251 1.915-1.29 5.21-2.447 7.617l.272.148 2.357-2.893 2.523 2.584-2.566 2.583.58.331 2.21-2.224c1.728 2.795 3.213 6.167 3.596 9.165l.37-.014a18.545 18.726 0 0 0-.098-5.645l5.954 6.11.342-.345c.906-.915 1.094-1.95.976-2.062l-7.69-7.892a9.551 9.645 0 0 1 3.186 1.394c2.502-.204 1.366-4.442-3.668-1.887zm12.57-4.752-.097.162-8.303-8.518c.376-.507.313-.802.118-1.063l-2.677 2.204 9.342 9.588-4.392 6.477.662.218 4.197-6.216 4.804 4.928.356-.36c.697-.704 1.074-1.928.885-2.126l-4.545-4.66 1.708-2.535c.16-.233.195-.52.034-.69l-2.824.302zm-.696-18.163c1.436.218 3.29.704 4.545 1.627 3.165-.479 1.276-5.787-4.496-1.838zm12.709-4.639c.23-.225.327-.493.195-.718l-3.716.409.307 2.59-10.953 11.025.613.33zm-10.479 12.7c2.963 1.359 6.519 3.26 8.847 5.547 4.114-.063.663-6.61-8.7-5.829zm17.632-.775-3.395 3.415a68.603 69.272 0 0 0-3.73-11.545c.404-.373.404-.74.293-.986l-3.514 2.07c2.015 2.964 4.706 7.498 6.477 10.94l-8.227 8.278.579.331 14.766-14.86c.244-.247.341-.508.216-.74l-3.779.444zm3.758-28.412 1.59 1.633-3.62 3.64-1.589-1.634zm.056 7.412-1.624-1.661 3.618-3.64 1.625 1.662zm.467.479 3.619-3.64.64.662.328-.324c.65-.655 1.095-1.978.963-2.147l-3.919-4.02c.244-.372.328-.717.293-.95l-3.116.394.056 1.837-3.374 3.4-2.636 1.155 6.26 6.428.259-.26c.76-.768 1.157-1.979.997-2.148zm.119 5.132-1.242 2.815-3.994-4.104 1.721-1.731c.23-.225.293-.458.168-.69-1.095-.17-2.97-.176-2.97-.176l.488 1.985-3.423-3.505c.404-.507.362-.789.167-1.05l-2.656 2.218 4.203 4.315-1.673 1.683.593.344 1.54-1.548 4.658 4.78-1.255 2.57 3.109 1.112a.93.93 0 0 0-.125-.887l.913-8.032zm8.247-6.245c2.085 2.57 3.06 4.23 2.99 4.949-.062.26-.16.422-.424.69l-1.75 1.57a13.386 13.517 0 0 0-1.27-6.744zm-.579-.33-4.622 4.652a12.48 12.601 0 0 0-.44-2.104l6.025-6.062c.243-.246.327-.492.195-.717l-3.312.33.266 2.316-7.983 8.04.592.344 2.064-2.077a14.85 14.995 0 0 1 .892 8.075l.356.07c1.046-2.52 1.562-5.026 1.43-7.378l.536-.542a16.662 16.825 0 0 1 .502 8.863l.404.05c1.408-3.704 1.799-7.392.83-10.659l.501-.507c1.646 3.042 2.308 6.456 1.597 10.047l.341.084q1.076-2.756 1.241-5.259l.21.211c.697-.436 1.31-.668 1.777-.612.468.056.949.415 1.45.922a4.462 4.506 0 0 0 1.416-2.471c.251-1.457-.788-3.45-3.577-6.808.293-.393.405-.668.39-.95l-3.018.267z" style="stroke-width:.69231"/></svg>