<svg xmlns="http://www.w3.org/2000/svg" width="200" height="200" fill="#ccc" opacity=".3" viewBox="0 0 200 200">
	<path d="m25.603 145.958-2.644 2.647-1.036-1.12-1.532-1.562c.356-.493.329-.789.133-1.014l-2.87 2.351 2.198 2.239 1.077 1.133-3.282 3.281.616.331 3.113-3.119c2.967 3.323 5.444 7.47 3.673 13.749l.294.035c3.687-7.152 1.218-12.087-1.945-15.804l2.82-2.823c3.63 3.97 5.534 6.434 5.443 7.37 0 .26-.12.444-.378.704-.357.36-1.448 1.324-2.134 1.908l.195.233c.833-.535 1.61-.83 2.176-.845.49.035 1 .43 1.582 1.02.944-.95 1.406-1.865 1.476-2.879.119-1.654-1.665-4.174-6.15-9.116.293-.394.391-.718.363-.986l-3.197.233zm-4.065-4.675-8.368 8.378-3.17 1.316 5.1 5.203c3.1 3.16 6.375 6.8 7.305 11.32l.273-.05c1.008-5.998-2.673-10.215-5.64-13.248l-3.693-3.773 11.16-11.173c.23-.225.308-.471.182-.704l-3.429.296zm13.266-1.766-3.73-3.809 3.05-3.055 3.695 3.773.035.035zm4.394-11.94 3.73 3.808-3.114 3.12-.035-.036-3.694-3.773zm4.163 4.252 1.273 1.302.329-.324c.671-.668 1.196-2.013 1.085-2.161l-4.618-4.71c.259-.394.364-.718.343-.964l-3.282.415.07 1.887-2.953 2.957-2.225-2.274c.357-.493.315-.802.12-1.063l-2.785 2.302 2.939 3-2.918 2.921-2.847 1.253 6.78 6.92.293-.295c.784-.782 1.21-2.063 1.036-2.246l-.756-.775 3.036-3.041a10.425 10.49 0 0 1 2.478 4.11c-1.449.24-2.89.184-4.296-.266l-.07.359c1.616.732 3.155 1.112 4.653 1.182.343 2.394-.273 5.168-2.106 8.603l.273.148c2.497-3.45 3.687-6.336 3.862-8.827 3.26-.43 6.437-2.204 9.824-4.844-.77-1.155-.91-2.316-.308-3.414l-.21-.212c-3.086 2.922-6.241 5.407-9.383 6.618-.301-1.986-1.28-3.746-2.764-5.428zm15.162-19.233c1.239 1.795 2.268 3.731 3.002 5.737-1.91-.436-3.89-1.33-5.926-2.815zm-.588-2.316.036 1.95-3.505 3.513-2.967-3.034a53.736 54.066 0 0 0 5.157-5.885c.441-.176.637-.409.637-.704l-3.421-.36-3.002 6.568-2.162 1.02 4.036 4.12-2.61-.163.462 1.957-4.324-4.414c.329-.457.294-.718.105-.986l-2.463 2.07 4.954 5.055-1.078 1.077-3.876-3.956c.343-.472.294-.789.105-1.05l-2.477 2.056 7.55 7.71c2.743 2.8 4.842 5.236 5.975 8.046l.343-.05c.119-3.576-1.624-6.532-4.345-9.42l1.385-1.386 6.388 6.526.294-.296c.622-.62 1.014-1.865.889-2.027l-5.535-5.653c.26-.394.364-.789.343-1.035l-3.072.394.07 1.788-1.225 1.225-2.358-2.408 4.408-4.407c.182-.183.26-.36.217-.542l1.21 1.232c2.967 3.034 5.857 6.343 6.5 10.595l.308-.05c1.022-5.589-2.238-9.377-5.094-12.29l-.874-.887.392-.394c2.505 2.09 4.688 3.526 6.759 4.357a16.093 16.192 0 0 1 .105 7.56l.357.064c1.021-2.493 1.434-4.801 1.385-6.998a12.174 12.249 0 0 0 5.205.233c-.497-1.17-.378-2.295.294-3.168l-.126-.198a14.133 14.22 0 0 1-5.604.944c-.441-2.724-1.56-5.259-2.995-7.61.342-.409.455-.62.392-.915zm17.178-17.36c.245-.247.308-.472.182-.704-1.414.014-3.736.246-3.736.246l.392 2.71-3.135 3.133-2.94-2.999c.442-.605.393-.915.183-1.232l-2.953 2.4 3.73 3.809-6.052 6.06.58.332 4.766-4.773c2.169 4.062 3.484 9.398 2.945 14.185h.322c1.435-4.372 1.575-8.623.602-12.58l4.065 4.154-3.148 3.154.58.33 3.016-3.02 3.73 3.81.378-.374c.797-.802 1.21-2 1.035-2.175l-3.162-3.231 2.792-2.795c.231-.225.308-.471.182-.704-1.302-.007-3.394.098-3.394.098l.441 2.464-.475.472-6.696-6.836c4.66 2.773 9.033 3.942 13.14 3.288-.623-1.267-.588-2.549.034-3.464l-.126-.233a19.171 19.29 0 0 1-12.853.043zm9.572-11.806-3.967 3.97.602.317 3.82-3.822 2.952 3.012-3.7 3.71.6.318 3.555-3.562 3.435 3.506-4.436 4.441.616.331 4.288-4.294 4.31 4.4.393-.394c.77-.767 1.147-2.162.937-2.373L84.467 76.77c.378-.506.33-.788.133-1.048l-2.882 2.365zm14.833-.296-1.742 1.746-3.387-3.456 3.785-3.788c.232-.225.33-.493.196-.718l-3.358.233.378 2.365-1.455 1.458-2.904-2.964 3.996-3.999c.23-.225.328-.493.195-.718l-3.456.233.378 2.464-1.568 1.57-2.162-2.21c.392-.521.33-.818.133-1.085l-2.903 2.38 14.973 15.283.392-.394c.77-.767 1.147-2.161.937-2.372l-3.708-3.788 4.338-4.344c.245-.246.343-.506.196-.717l-3.653.232zm6.08-23.773 1.322 1.352-6.331 6.336-1.323-1.352zm-3.149 9.581-1.385-1.415 6.332-6.336 1.385 1.415zm.47.478 6.331-6.336.615.627.33-.324c.622-.62 1.259-1.915 1.182-2.028l-3.534-3.604c.28-.408.364-.789.343-1.035l-3.26.465.055 1.872-6.052 6.061-2.813 1.218 5.744 5.864.26-.26c.797-.803 1.245-2.063 1.084-2.225zm4.505 6.512 2.302-2.302 1.358 1.387-2.03 2.584zm-1.476-6.16 1.406 1.437-2.301 2.302-1.407-1.436zm-.427 4.218 2.302-2.302 1.455 1.485-2.302 2.302zm8.354-2.556-1.224 1.584-4.92-5.026 7.242-7.251c.232-.225.343-.507.196-.718l-3.442.218.357 2.478L99.6 72.898l.602.317 1.693-1.696 5.57 5.68-1.665 2.028 2.77 1.211c.147-.21.183-.542.084-.837l3.296-6.006 2.337 2.387.308-.31c.917-.915 1.112-1.802 1.036-1.915l-2.435-2.485.951-1.929zm.21-6.117a15.085 15.085 0 0 1 1.617 3.795 8.606 8.659 0 0 1-4.57-.838zm-.525-2.316-.013 1.936-4.226 4.23.601.318.917-.915c1.924 1.302 3.624 2.048 5.248 2.35a12.743 12.743 0 0 1-.302 5.266l.343.085c.868-1.782 1.365-3.52 1.504-5.195a12.104 12.18 0 0 0 4.584-.93c-.658-1.203-.7-2.33-.126-3.294l-.147-.183c-1.4.88-2.834 1.626-4.275 2.063a14.064 14.15 0 0 0-1.42-5.076c.342-.409.44-.606.377-.867zm10.468-6.174c1.169.303 2.687 1.028 3.59 2.049 2.61-.035 1.567-4.632-3.506-2.33zm3.827-11.235-2.379 2.386-3.26-3.33c1.287-1.654 2.484-3.534 3.155-4.857.65-.36.944-.718.966-1.063l-3.59.394a23.929 24.076 0 0 1-.986 4.864l-2.54 1.338 4.743 4.843-2.84.17.315 2.097-.896.901a26.308 26.47 0 0 0-.287-3.984c.392-.324.441-.64.315-.901l-2.687 1.415 2.268-2.274c.231-.225.308-.471.182-.704l-2.925.183.301 2.02-1.092 1.091c.546-1.295-.986-3.154-4.345-.613l-.034.233c.937.134 2.19.584 2.995 1.31.223-.036.44-.078.615-.163l-3.59 3.59.602.345 1.077-1.077-.063.134c1.022.45 2.38 1.175 3.233 2.112 2.463.077 1.742-4.16-3.023-2.393l3.638-3.64a43.9 43.9 0 0 1 2.365 3.766l-4.618 4.626.602.344 3.036-3.041 1.904 1.943-2.89 2.894.58.33 2.758-2.76 1.014 1.036-2.54 1.007c1.175 1.527 2.75 4.097 3.344 6.244l.343-.014c.287-2.28-.28-4.808-.874-6.631l.16-.162 2.876 2.935c.175.183.224.331 0 .556l-1.4 1.275.21.21c.714-.52 1.17-.584 1.575-.534.406.049.811.429 1.308.908 1.764-2.063 1.33-3.027.169-4.217l-4.36-4.45 2.66-2.66c.23-.226.307-.472.181-.705-1.105-.007-2.84.17-2.84.17l.301 1.985-.748.753-1.904-1.943 3.037-3.042c.147-.148.231-.295.231-.457l.455.464c2.939 3 5.682 6.259 6.01 10.588l.343.022c1.476-5.815-1.623-9.504-4.478-12.418l-.58-.591 1.546-1.55 8.942 9.124.329-.324c.98-.978 1.147-1.964 1.036-2.077l-8.424-8.595 1.434-1.436c.231-.225.329-.493.182-.704-1.343.013-3.491.232-3.491.232zm13.273-20.662.105 1.922-3.8 3.808-2.308-2.584c.343-.443.329-.788.133-1.049l-2.784 2.366 3.001 3.231-3.358 3.365-2.897 1.204 12.881 13.144.309-.31c.818-.817 1.147-2.062.902-2.308L132.432 34.3l3.477-3.478c2.582 3.062 4.059 6.02 3.499 10.3l.42.07c1.531-3.78 1.335-6.554.146-9.053 2.043.176 4.429.69 6.024 1.668 3.121-.513.728-5.59-6.38-2.358-.47-.873-1.078-1.724-1.77-2.57l4.015-4.019 9.089 9.271c.245.247.273.479-.035.789-.538.542-2.903 2.612-2.903 2.612l.223.233c1.19-.866 1.876-1.091 2.519-1.12.643-.028 1.196.303 1.924.845 2.155-2.62 1.721-3.752.42-5.083l-9.005-9.208c.259-.394.342-.767.342-.964zm16.435-15.248 1.463 2.189.245-.05a15.463 15.558 0 0 0 .552-3.688c.308-.345.455-.556.427-.817l-3.274.05.008 1.95-4.338 4.343c.608-1.457-1.218-3.513-4.318-.05l-.02.212a4.478 4.506 0 0 1 3.043.83c.16-.035.308-.077.441-.147l-4.863 4.864a8.047 8.096 0 0 0-1.182-.648l-.231.225a3.358 3.38 0 0 1 .874 3.266c-.245.74-.154 1.528.588 1.922.826.38 1.735-.275 1.924-1.14.189-.866-.169-2.147-1.442-3.224zm-2.882 5.103c1.903-.464 4.709-.633 6.52-.133 2.764-1.232-.517-5.745-6.535-.14zm-3.73 11.306a18.402 18.514 0 0 0 1.798-8.158c.392-.324.427-.556.343-.803l-3.121 1.204a17.982 18.092 0 0 1 .644 7.716zm11.097-6.216-4.597 4.604-1.756.746c.777-2.801 1.085-5.526.756-7.61a12.525 12.601 0 0 0 5.549.514zm-1.182 8.328-3.086-3.147 4.863-4.864 3.086 3.147zm-7.375-10.08c1.302 2.681 1.078 8.482-.378 12.777l.294.133a29.132 29.132 0 0 0 1.96-4.703l5.337 5.456.28-.274c.749-.754 1.162-2.014 1-2.176l-.664-.675 4.863-4.865 1.112 1.134.33-.324c.621-.62 1.195-1.915 1.098-2.049l-3.94-4.02c.246-.344.294-.654.28-.837l-2.127.267a17.842 17.952 0 0 0 4.129-1.295c-.595-.81-.896-2.133-.343-3.154l-.259-.26c-2.834 1.992-6.899 3.97-9.935 3.878.455-.556.552-.851.412-1.133zM48.518 159.96c.245-.247.343-.507.217-.74l-3.814.43.308 2.689-11.761 11.777.58.331 6.724-6.73c2.38 4.47 3.575 11.334 2.91 17.283h.26a30.296 30.482 0 0 0 1.231-12.066l8.361 8.532.357-.36c.72-.717 1.273-1.9 1.182-2.027l-9.25-9.44c.26-.36.294-.62.196-.818l-1.385.634a24.992 24.992 0 0 0-1.308-4.301zm-1.4 9.954c2.778-.43 6.753-.493 9.265.289 3.253-1.098-.294-6.364-9.264-.578zm12.504-23.85a8.117 8.166 0 0 1 3.855.774c2.701-.711.728-5.195-3.841-1.014zm-3.352 11.023a29.667 29.849 0 0 0-1.595-5.026c.392-.359.441-.704.294-.986l-3.583 1.852c2.477 3.977 4.268 8.715 4.85 12.179l.321-.063a19.521 19.64 0 0 0 .203-4.513l8.746 8.927.356-.36c.735-.732 1.113-1.928.987-2.097l-9.488-9.687c.259-.36.293-.62.217-.838zm17.409-5.385-.21.148a23.72 23.865 0 0 1 .959 3.09c.112.444 0 .557-.49.592-3.54.577-6.941-1.014-10.153-3.506l4.233-5.343c.196-.26.245-.542.098-.754-1.414.275-3.478.873-3.478.873l.504 2.464-1.86 2.351a46.53 46.815 0 0 1-4.36-4.118c.343-.472.294-.817.12-1.063l-2.855 2.24a58.284 58.641 0 0 0 5.458 5.012l-3.037 3.857.616.267 2.939-3.73c3.946 3.034 8.025 4.892 12.538 4.449 1.448-.176 3.464-.887 3.421-2.38-.013-.542-.56-.936-2.099-1.288zm10.795-17.085c.287 1.246.455 3.365.441 5.168a11.265 11.334 0 0 1-4.912-1.282l6.102-6.11c.231-.225.329-.493.196-.718l-3.394.232.329 2.415-3.687 3.689-1.89-1.929 4.842-4.85c.232-.225.33-.493.196-.718l-3.26.232.342 2.295-2.575 2.584-1.79-1.83 5.478-5.491c.23-.225.308-.472.182-.704l-3.33.232.328 2.345-3.135 3.132-1.357-1.386c.356-.493.342-.803.153-1.063l-2.784 2.366 2.015 2.055-5.611 5.618.615.331 5.465-5.47 1.79 1.83-4.813 4.816.581.33 4.68-4.688 1.89 1.929-6.43 6.434.601.345 5.22-5.223c.49 2.97.19 6.856-1.091 10.426l.308.12c1.077-1.866 1.93-3.731 2.56-5.597l2.226 2.273c.293.296.356.592.007 1.753l3.162.683c.035-.197.05-.444.02-.704l1.778-7.716-.245-.113-2.526 4.421-3.596-3.674a14.133 14.22 0 0 0 .189-4.527c4.835 3.217 9.019 3.928 13.133 2.253-.805-1.02-.944-2.281-.518-3.626l-.196-.26c-2.036 1.415-4.198 2.38-6.535 2.535.867-1.753 1.595-3.717 1.994-5.125.44-.275.489-.521.44-.768zm6.256-19.508c1.12-.14 2.73.042 3.73.606 2.651-.824.482-5.245-3.708-.852zm6.535 1.162c.511 1.344 1.134 3.66 1.476 5.597a14.064 14.15 0 0 1-4.358-1.64l-1.127-1.155 6.102-6.11c.245-.247.328-.494.196-.719-1.365.057-3.478.345-3.478.345l.28 2.429-3.575 3.576-2.743-2.801c.342-.472.329-.754.133-1.014l-2.806 2.288 3.435 3.506-6.332 6.336.602.345 6.199-6.21 4.68 4.78-3.407 8.99 3.533.57c.084-.282 0-.591-.175-.837l.609-8.152 3.484 3.555c.224.232.238.408-.056.704-.392.394-2.463 2.203-2.463 2.203l.21.211c1.077-.753 1.707-.929 2.295-.922.587.008 1.133.366 1.812.93 2.106-2.5 1.658-3.584.322-4.957l-6.759-6.899c4.919 3.239 8.53 3.696 12.56 2.893-.694-1.168-.798-2.499-.176-3.477l-.126-.233c-2.372 1.105-5.157 1.993-8.27 1.556a39.462 39.705 0 0 0 1.217-5.688c.406-.345.504-.57.428-.817zm-9.76 10.426c1.602.12 3.68.69 5.002 1.71 3.233-.428 1.147-5.786-4.953-1.956zm11.894-21.704c1.203.007 2.855.338 3.919.971 2.68-.626.79-5.096-3.89-1.232zm.371 3.647 13.106 13.375.308-.31c.7-.704 1.077-1.83.889-2.027l-11.797-12.038c.44-.57.378-.902.182-1.197zm14.554 3.604-2-2.042 2.546-2.548 1.826 1.858zm-4.17-9.398 1.853 1.893-2.547 2.548-1.854-1.893zm-.224 4.92 2.547-2.548 1.938 1.978-2.547 2.548zm.72-13.347.14 1.788-6.262 6.272.602.317 6.283-6.286 10.992 11.214c.26.26.273.479-.02.775a45.55 45.829 0 0 1-1.764 1.57l-1.826-1.859 1.371-1.604c.196-.233.245-.507.098-.718l-2.56-.176.279 1.675-6.115-6.244 1.259-1.26c.231-.225.329-.493.182-.705l-2.89.254.232 2.02-6.591 6.596.567.345 1.273-1.274 6.843 6.983-1.484 1.718.679.33 5.275-6.096 2.966 3.034.294-.295c.881-.88 1.077-1.767.987-1.866l-.518-.528c.615-.36 1.056-.472 1.497-.486.504.02 1.036.366 1.651.893 1.946-2.372 1.512-3.372.287-4.625l-10.908-11.137c.28-.373.364-.753.343-1zm18.926-8.933 3.52 3.59-6.458 6.47-3.52-3.59zm1.365 14.46-3.856-3.936 6.458-6.47 3.856 3.936zm-4.296-19.198L115.24 92.166l.601.345 5.724-5.73 2.596 3.21-1.372 1.373-2.925 1.232 11.007 11.235.308-.309c.847-.852 1.196-2.112.973-2.344l-.742-.76 6.458-6.47 1.336 1.366.329-.324c.685-.683 1.21-2.062 1.099-2.21l-8.76-8.948c.28-.408.343-.767.329-1.014l-3.331.394.084 1.971-4.178 4.182a23.58 23.724 0 0 0-.832-4.977l5.891-5.9c.245-.246.343-.506.217-.739l-3.653.43zm12.202-11.657c1.33-.029 3.113.373 4.177 1.168 2.89-.444 1.064-5.308-4.163-1.415zm3.673 4.378c1.302-.056 3.065.29 4.15 1.036 2.875-.529.951-5.393-4.15-1.267zm-2.784 2.204 2.267-2.273c.21-.212.308-.472.182-.705-1.168-.006-3.036.099-3.036.099l.392 2.147-.26.26-2.84-2.9 1.126-1.816c.7-.345 1.008-.753 1.043-1.113l-3.911.233a29.457 29.638 0 0 1-2.456 7.617l.273.148 2.365-2.893 2.533 2.584-2.575 2.583.581.331 2.218-2.224c1.735 2.795 3.226 6.167 3.617 9.165l.371-.014a18.541 18.656 0 0 0-.097-5.645l5.99 6.11.342-.345c.916-.915 1.098-1.95.986-2.062l-7.731-7.892c1.084.282 2.35.746 3.204 1.394 2.519-.204 1.372-4.442-3.687-1.887zm12.636-4.752-.098.162-8.34-8.518c.378-.507.315-.802.119-1.063l-2.687 2.204 9.39 9.588-4.415 6.477.665.218 4.219-6.216 4.828 4.928.356-.36c.7-.704 1.085-1.928.89-2.126l-4.57-4.66 1.714-2.535c.16-.233.196-.52.035-.69l-2.84.302zm-.7-18.163c1.441.218 3.31.704 4.57 1.627 3.182-.479 1.28-5.787-4.521-1.838zm12.776-4.639c.232-.225.33-.493.196-.718l-3.736.409.308 2.59-11.013 11.025.615.33zm-10.53 12.7c2.98 1.359 6.557 3.26 8.893 5.547 4.135-.063.665-6.61-8.746-5.829zm17.724-.775-3.408 3.415c-.854-3.97-2.484-8.61-3.75-11.545.405-.373.412-.74.293-.986l-3.533 2.07c2.029 2.964 4.73 7.498 6.514 10.94l-8.27 8.278.58.331 14.847-14.86c.246-.247.343-.508.217-.74l-3.8.444zm5.8-14.988-1.7 2.88-4.618-4.71 2.218-2.224c.231-.225.293-.458.168-.69-1.106-.134-2.966-.191-2.966-.191l.538 2.231-.406.409-3.617-3.689c.378-.507.315-.802.133-1.084l-2.687 2.267 4.296 4.378-2.022 2.028.567.345 1.91-1.908 5.065 5.174-1.623 2.57 3.24 1.162a1.05 1.056 0 0 0-.029-.852l1.764-7.962Zm3.953-11.397-.014 1.901-4.597 4.604.896-9.18c.426-.493.72-.978.685-1.345l-3.407.317.07 1.824-5.71 5.716.602.317 5.318-5.321c-.063 2.344-.47 6.082-.861 8.687a6.255 6.255 0 0 0-.804 1.393l2.952.014.252-1.492.637-.634c1.476 3.055 2.092 6.617 1.372 10.18l.391.07c1.617-4.357 1.568-8.327 0-12.01l.525-.52c2.736 4.308 3.555 9.004 1.721 14.361l.357.07c3.016-6.251 2.61-11.355-.273-16.24l.49-.493c3.596 4.034 5.352 6.456 5.282 7.405-.035.296-.12.479-.378.74a43.66 43.928 0 0 1-1.973 1.746l.21.246c.748-.486 1.462-.781 1.952-.746.49.035.973.401 1.49.922a4.128 4.153 0 0 0 1.414-2.717c.12-1.655-1.532-4.175-5.94-9.067.308-.409.392-.718.378-.965z" style="stroke-width:.692307"/>
</svg>
