<svg xmlns="http://www.w3.org/2000/svg" xml:space="preserve" width="20" height="20" viewBox="280 205 40 365"><path d="M478.6 456.6h-84c.6-3 1.2-5.7 1.5-8.7h72.6v-31.5H397v-8.7h68.1v-63.6H397v-6.9h45.6v-35.4h30.3v-32.7h-30.3v-14.4h-44.1v14.4h-30.6l-32.1 68.1h19.8v6.9h-23.1l-30 63.6h53.1v8.7h-57.2l-8.2 17.5v14h64.2c-.6 3-1.2 6-2.1 8.7h-72.8l-1 2.1v29.7h49.8c-12.3 8.4-30.3 15-55.5 19.2 8.7 8.1 20.1 24 24.9 33 44.4-10.8 70.5-29.1 84.9-52.2h13.8l-15.3 23.4c24.9 7.2 60 19.8 77.1 28.5l19.8-32.1c-13.5-6-36.9-13.8-57.6-19.8h58.2zm-123-76.2h-25.8v-9.3h25.8zm68.1-9.3v9.3H397v-9.3zM355 310.5v-8.7h43.5v8.7zm-90.7-44.4h80.2l20-42.4-1.5-.5-6.9 1.8H216.6v41.1h31.2l-24.9 5.1c12.6 53.4 29.4 99.3 54 136.5-21.6 21.6-48.3 37.5-78.9 47.7 8.7 8.4 19.2 25.2 24.6 36.6 6.7-2.7 13.2-5.6 19.5-8.6l57.3-121.7c-15.8-28.2-27.4-60.7-35.1-95.6M198 323.4c-13.5-9.9-41.1-22.8-59.7-30L117 326.7c19.2 8.7 45.9 23.1 58.2 33.6zm13.5-78.3c-12.6-10.8-38.4-24-56.7-31.5L132 245.7c18.9 9 43.8 24 54.9 34.8z"/><path d="M180 366.6c-18 35.1-40.2 71.4-55.8 93.6l35.1 29.7c18-30 35.4-62.4 51-93.9z"/></svg>